<svg xmlns="http://www.w3.org/2000/svg" viewBox="0 0 500 500"><g id="freepik--background-complete--inject-44"><path d="M128.76,249.89c1.41,3.88,1.12,8.67,1,12.72a101.75,101.75,0,0,1-1.62,13.82c-.77,4.25-1.75,8.47-2.8,12.65l0,.12-.21.82c0,.34-.08.68-.14,1a.21.21,0,0,1-.18.18.18.18,0,0,1-.22-.19l.06-.56c.68-7.86-3.85-15-4.13-22.82-.15-4.26.88-8.54,1.67-12.7.44-2.31.55-5.3,1.45-7.47.24-.57.29-1.19.94-1.5C126.49,245.05,128.27,248.53,128.76,249.89Z" style="fill:#ebebeb"></path><path d="M126.9,252.8c-1.24-1-2,1.8-2.2,2.57-1.62,5.19-2.53,11.37-1.6,16.73,1,5.91,2.08,11.81,1.64,17.79-.06.2-.12.39-.17.59l-.06.56a.18.18,0,0,0,.22.19c0-.13,0-.24,0-.36.17-.55.33-1.11.48-1.67l0-.12a111.7,111.7,0,0,0,2.07-12.24,79.23,79.23,0,0,0,.92-17.33,41.66,41.66,0,0,0-.52-4.17C127.63,254.65,127.5,253.29,126.9,252.8Zm.69,3.5a43.14,43.14,0,0,1,.45,4.4,80.73,80.73,0,0,1-.88,15.22A112,112,0,0,1,125,289a46.1,46.1,0,0,0-.43-10.22c-.36-2.55-.89-5.06-1.27-7.6a28.74,28.74,0,0,1,.3-8.58,37,37,0,0,1,1.72-7.94c.2-.5.78-1.62,1.22-1.55C127.3,253.22,127.51,255.72,127.59,256.3Z" style="fill:#fff"></path><path d="M93.48,309.89s0,0,0,0" style="fill:#ebebeb"></path><path d="M124.93,364.16a.18.18,0,0,1,.09.23h0a.22.22,0,0,1-.16.16.23.23,0,0,1-.16,0c-4.81-2.43-9.4-6.3-15-6.58-4.35-.23-8.1.31-12.24-1.47a32.93,32.93,0,0,1-11.07-7.95,33.76,33.76,0,0,1-3.77-5c-.53-.86-2.25-3-2-4.07,1.13-5.11,16.29,4,18.3,5.2,8.92,5.43,18,11.53,25.44,18.9a.08.08,0,0,1,0,.08.15.15,0,0,1-.06.09C124.54,363.89,124.74,364,124.93,364.16Z" style="fill:#ebebeb"></path><path d="M124.93,364.16c-.19-.14-.39-.27-.59-.4a.15.15,0,0,0,.06-.09c-4.93-3.74-10.16-7.13-15.41-10.4a154.34,154.34,0,0,0-17.47-9.82c-.83-.38-4.28-2.44-5-1.1s2.86,4.39,3.62,5.08c4.5,4,10.37,5.86,16,7.53,3.68,1.08,7.3,2.11,10.6,4.15,2.77,1.71,5.33,3.72,8.08,5.45a.22.22,0,0,0,.16-.16c-1.41-.89-2.76-1.88-4.12-2.85l4.12,2.84A.18.18,0,0,0,124.93,364.16Zm-12.42-7.59c-5.52-2.15-11.44-3.1-16.76-5.81a23.53,23.53,0,0,1-6.86-5.1c-.37-.4-2.17-2.21-1.76-2.92.27-.49,1.7-.05,1.91,0a41.87,41.87,0,0,1,4.59,2c5.19,2.65,10.24,5.65,15.19,8.72,2.75,1.71,5.44,3.49,8.11,5.3A26.7,26.7,0,0,0,112.51,356.57Z" style="fill:#fff"></path><path d="M103,258.39c.6,4.61-.33,9.42-1.58,13.86C98.5,282.51,92.87,292,91.09,302.62c-.07.42-.13.84-.19,1.25s0,.41-.15-.23h0c-.77-2.81-3.45-15.21-2.22-24.12.77-5.55,2.68-10.8,4.6-16,1.1-3,2.17-6,3.29-9,.36-1,.87-3.69,2.31-3.9C101.52,250.2,102.76,256.59,103,258.39Z" style="fill:#ebebeb"></path><path d="M98.15,259.32a.93.93,0,0,0-1.24.32,4.9,4.9,0,0,0-.61,1.82l-.84,3.26c-1.94,7.51-4.56,15.19-5.28,22.94a64.67,64.67,0,0,0,.55,15.47c0,.17,0,.34,0,.5h0c.17.64.24.78.15.23s.12-.83.19-1.25,0-1.15.06-1.73a47.23,47.23,0,0,1,2.62-11.66,117.81,117.81,0,0,0,5.3-22.14,23.43,23.43,0,0,0,.17-5.09C99.15,261.24,99,259.72,98.15,259.32Zm.68,2.42a7.2,7.2,0,0,1,.11,1.12,19.19,19.19,0,0,1-.06,2.4c-.14,1.94-.44,3.84-.77,5.75a160.4,160.4,0,0,1-5.26,19.89,42.5,42.5,0,0,0-2.06,10,84.6,84.6,0,0,1-.43-8.56c0-7.32,2.07-14.25,3.87-21.28l1.35-5.23c.22-.87.45-1.74.67-2.61l.33-1.31c.22-.87.1-1.24,1.07-1.51C98.85,260.05,98.67,260.73,98.83,261.74Z" style="fill:#fff"></path><path d="M110.31,301.29a57.07,57.07,0,0,1,2.8,10.52c1.2,7.2.09,15.52,2,22.69.17.47.32.95.45,1.43a5.36,5.36,0,0,1,.14.54c0,.1-.13.15-.17.06-.15-.3-.3-.61-.46-.91v0c-.08-.16-.17-.32-.24-.48-3.57-7-8.15-13.36-9.67-21.2-.94-4.83-2.43-18.13.75-19.14C107.31,294.33,109.53,299.22,110.31,301.29Z" style="fill:#ebebeb"></path><path d="M107.41,302c-.76.36-.73,1.85-.78,2.47a30.48,30.48,0,0,0,.18,5,49.73,49.73,0,0,0,1.8,9,97.07,97.07,0,0,0,6.2,16.66c.07.16.16.32.24.48v0c.16.3.31.61.46.91,0,.09.2,0,.17-.06a5.36,5.36,0,0,0-.14-.54c-2.35-6.15-3.33-12.61-4.14-19.16C111.22,315.3,110,300.75,107.41,302Zm2.38,5.9c.23,1.38.42,2.75.6,4.14.43,3.21.8,6.44,1.27,9.66a74.07,74.07,0,0,0,2.18,10.39c-1.62-3.89-3.14-7.81-4.37-11.86a68.76,68.76,0,0,1-2-8.1,35.74,35.74,0,0,1-.46-4.5c0-.73-.33-4.89.53-5.25C108.64,301.93,109.7,307.3,109.79,307.89Z" style="fill:#fff"></path><path d="M140.73,287.08c1.76,2.16.93,6.47,0,8.75a20.59,20.59,0,0,1-6.59,8c-4,3.14-8.38,5.56-11.72,9.43s-2.25,2.68-4.57,7.59c0,.1-.14.1-.21,0a.94.94,0,0,1-.15-.79s0-.09,0-.13c2.14-8.08,6.28-14.44,11.78-20.75,3.12-3.57,5-8.1,8.24-11.54C138.72,286.34,139.52,285.59,140.73,287.08Z" style="fill:#ebebeb"></path><path d="M138.87,291.33c-1.19-.57-2.69,1.85-3.3,2.72a50.14,50.14,0,0,1-5.68,7.22,62,62,0,0,0-5.54,5.92,40.74,40.74,0,0,0-6,10.82c-.31.65-.6,1.33-.86,2a.94.94,0,0,0,.15.79c0-.1,0-.18.08-.27a27.84,27.84,0,0,1,9.79-12.63c4.53-3.43,8.79-7.24,11.21-12.5C139.13,294.5,140,291.85,138.87,291.33Zm-.2,3.43a22.56,22.56,0,0,1-1.34,2.64,28.56,28.56,0,0,1-3.2,4.3,49.55,49.55,0,0,1-7.14,6.19,30.2,30.2,0,0,0-7.46,7.94,41.61,41.61,0,0,1,5.61-9.18c2-2.5,4.54-4.52,6.64-6.95,1-1.12,1.82-2.32,2.67-3.53l1.38-2c.4-.58,1.7-2.64,2.56-2.47C139.51,292,138.83,294.4,138.67,294.76Z" style="fill:#fff"></path><path d="M66.72,266.69c7.14,8.06,13.79,16.54,20.11,25.26a.28.28,0,0,1,0,.34s0,0,0,.06l.12.16a.13.13,0,0,1,0,.17l0,0h0a.13.13,0,0,1-.12,0c-4.46-4.37-8.64-8.45-14.25-11.34-5.13-2.64-10.18-4.83-14.64-8.58C54,269.54,43.23,253.7,45,249.92,46.17,247.38,61,260.28,66.72,266.69Z" style="fill:#ebebeb"></path><path d="M57.88,261.3c-.93-.9-3.67-4.44-5.41-3.72s1,4.3,1.55,5.06a51.56,51.56,0,0,0,6.35,7.85c2.41,2.35,5.27,3.91,8.06,5.75,6.85,4.53,12.89,10.41,18.39,16.46h0l0,0a.13.13,0,0,0,0-.17l-.12-.16s0,0,0-.06C78.21,281.07,68,271.13,57.88,261.3Zm28.34,30.64a116,116,0,0,0-12.15-11.83C69,275.9,63,273.18,58.6,268.17a39.2,39.2,0,0,1-5.72-7.92c-.19-.39-.9-1.68-.42-2.18s1.66.11,3.2,1.51c1.27,1.17,2.48,2.42,3.71,3.63,4.87,4.76,9.72,9.54,14.4,14.49Q80.26,284.59,86.22,291.94Z" style="fill:#fff"></path><path d="M96.44,325.81a.15.15,0,0,1,0,.11.2.2,0,0,1-.24.13l-.68-.22-.06,0c-5.11-.66-9.26.2-14.17,1.46a22.62,22.62,0,0,1-11.06,0,37.69,37.69,0,0,1-11.14-5c-1.4-.9-5.89-2.91-5.16-5.37,1.2-4.05,14.82,1.22,17.18,2a105.57,105.57,0,0,0,12.75,3.42c4.27.82,8.54,1.53,12.51,3.38A.14.14,0,0,1,96.44,325.81Z" style="fill:#ebebeb"></path><path d="M93.73,325.19h0c-2.46-.57-4.92-1.23-7.41-1.67-2.79-.49-5.64-.42-8.43-.9-5.24-.91-10.22-2.81-15.4-4-.68-.14-2-.41-1.65.74.15.5.87.91,1.25,1.18a24.57,24.57,0,0,0,3.65,2.14c4.31,2.05,9.31,3.56,14.14,3.34,5.58-.25,11-1.3,16.54-.12a.15.15,0,0,0,0-.11A15.65,15.65,0,0,0,93.73,325.19Zm-12.1.33a30.8,30.8,0,0,1-17.57-4.13,26,26,0,0,1-2.25-1.51c-.43-.36-1.06-1.13.59-.92a9.41,9.41,0,0,1,1.14.27c1.34.33,2.66.71,4,1.08,2.83.81,5.65,1.66,8.54,2.27a53.18,53.18,0,0,0,7.76.92,64.79,64.79,0,0,1,9.35,1.6C89.38,324.64,85.44,325.22,81.63,325.52Z" style="fill:#fff"></path><path d="M81.72,314.73a.39.39,0,0,1,0,.24.28.28,0,0,1,0,.12.27.27,0,0,1-.09.12l0,0a.37.37,0,0,1-.37,0,16.46,16.46,0,0,1-2.17-1c-8.46-3.23-17.13-6.64-24-12.62a55.4,55.4,0,0,1-9.2-10.43c-1.3-1.88-4.87-5.81-3.69-8.45s3.49-.93,5.08.14A119.83,119.83,0,0,1,59,291.89,66.13,66.13,0,0,1,69,302.66c3.46,4.73,6.78,9.63,12.49,11.77A.42.42,0,0,1,81.72,314.73Z" style="fill:#ebebeb"></path><path d="M66.09,302.77a142.67,142.67,0,0,0-15.47-14c-.7-.56-2.74-2-3.06-.38-.37,1.91,2.46,4.16,3.54,5.3a108.42,108.42,0,0,0,13.24,12,61.16,61.16,0,0,0,17.34,9.39.28.28,0,0,0,0-.12c-10.24-3.8-19.13-10.46-26.88-18.05-1.86-1.84-3.75-3.68-5.46-5.67-.28-.31-1.85-2.45-1.23-3s2.74,1.23,3,1.46l3.69,3.07a168.5,168.5,0,0,1,13,12.46A41.43,41.43,0,0,0,81.72,315a.39.39,0,0,0,0-.24C75.51,312,70.72,307.7,66.09,302.77Z" style="fill:#fff"></path><path d="M66.16,226.72a40.93,40.93,0,0,1,6.68,12.68c2.07,7.14,2,14.62,3,21.93,0,0,0,.06,0,.09a52.11,52.11,0,0,0,1.16,5.9c.11.41.23.83.35,1.24a.28.28,0,0,1,0,.26.34.34,0,0,1-.17.08.25.25,0,0,1-.17,0h0a.33.33,0,0,1-.2-.2c-.2-.58-.39-1.17-.56-1.77a.13.13,0,0,1-.09-.07c-4.37-9.13-9.33-18.36-14.29-27.38A73.39,73.39,0,0,1,56.16,227c-.84-2.57-1.86-6.54,0-8.92a.58.58,0,0,1,.5-.26C60.81,218.5,63.9,223.63,66.16,226.72Z" style="fill:#ebebeb"></path><path d="M61.6,227.3c-2-.64-1.57,1.7-1.25,2.88a84.16,84.16,0,0,0,3.48,9.22q2.08,5.1,4.31,10.15c2.8,6.34,6.72,12.66,8.79,19.31v0h0a.25.25,0,0,0,.17,0,.34.34,0,0,0,.17-.08c-.1-.51-.2-1-.31-1.5-.39-2-.77-3.94-1.16-5.9,0,0,0-.06,0-.09-1.87-9.47-3.93-18.85-8.9-27.54C65.75,231.77,64,228.08,61.6,227.3Zm5.91,8.28a68.53,68.53,0,0,1,6.28,17.34c1.09,4.79,1.82,9.65,2.82,14.45-1.38-3.86-3.39-7.53-5.13-11.26q-4.08-8.81-7.71-17.79c-.59-1.45-1.16-2.89-1.72-4.35-.5-1.28-1.56-3.29-1.57-4.69,0-2.73,2.27-.88,3-.07a16.58,16.58,0,0,1,1.66,2.32Q66.41,233.51,67.51,235.58Z" style="fill:#fff"></path><path d="M126.53,276a199,199,0,0,1-5.4,26.36c-2.22,7.95-4.53,15.89-5.61,24.09-1.43,10.88-.45,22.81,5.1,32.28a128.62,128.62,0,0,1-21.86-36.54c-8.94-22.45-17-45.53-27.9-67.17-.18-.36-.67-.07-.54.28,4.45,11.81,9.68,23.33,14.23,35.11S93.27,313.91,98,325.52q.77,1.88,1.59,3.72c-6.93-8.59-17.09-14.91-27.07-18.58-.13-.05-.18.14-.06.19a70.31,70.31,0,0,1,19.23,12.79c5,4.58,8.75,9.88,12.75,15.24a108,108,0,0,0,37.73,39.39.16.16,0,0,0,.17-.26,108.28,108.28,0,0,1-17.46-14.65c-8.92-11.81-9.34-27.58-6.68-41.9,1.4-7.52,3.39-14.89,5.16-22.32S127.14,283.77,127,276A.21.21,0,0,0,126.53,276Z" style="fill:#ebebeb"></path><path d="M371.24,249.89c-1.41,3.88-1.12,8.67-.95,12.72a101.75,101.75,0,0,0,1.62,13.82c.77,4.25,1.75,8.47,2.8,12.65l0,.12.21.82c0,.34.08.68.14,1a.21.21,0,0,0,.18.18.18.18,0,0,0,.22-.19l-.06-.56c-.68-7.86,3.85-15,4.13-22.82.15-4.26-.88-8.54-1.67-12.7-.44-2.31-.55-5.3-1.45-7.47-.24-.57-.29-1.19-.94-1.5C373.51,245.05,371.73,248.53,371.24,249.89Z" style="fill:#ebebeb"></path><path d="M372.24,255.34a41.66,41.66,0,0,0-.52,4.17,79.23,79.23,0,0,0,.92,17.33,111.7,111.7,0,0,0,2.07,12.24l0,.12c.15.56.31,1.12.48,1.67,0,.12,0,.23,0,.36a.18.18,0,0,0,.22-.19l-.06-.56c-.05-.2-.11-.39-.17-.59-.44-6,.63-11.88,1.64-17.79.93-5.36,0-11.54-1.6-16.73-.24-.77-1-3.59-2.2-2.57C372.5,253.29,372.37,254.65,372.24,255.34Zm1.23-2.26c.44-.07,1,1,1.22,1.55a37,37,0,0,1,1.72,7.94,28.74,28.74,0,0,1,.3,8.58c-.38,2.54-.91,5.05-1.27,7.6A46.1,46.1,0,0,0,375,289a112,112,0,0,1-2.17-13.05A80.73,80.73,0,0,1,372,260.7a43.14,43.14,0,0,1,.45-4.4C372.49,255.72,372.7,253.22,373.47,253.08Z" style="fill:#fff"></path><path d="M406.52,309.89s0,0,0,0" style="fill:#ebebeb"></path><path d="M375.07,364.16a.18.18,0,0,0-.09.23h0a.22.22,0,0,0,.16.16.23.23,0,0,0,.16,0c4.81-2.43,9.4-6.3,15-6.58,4.35-.23,8.1.31,12.24-1.47a32.93,32.93,0,0,0,11.07-7.95,33.76,33.76,0,0,0,3.77-5c.53-.86,2.25-3,2-4.07-1.13-5.11-16.29,4-18.3,5.2-8.92,5.43-18,11.53-25.44,18.9a.08.08,0,0,0,0,.08.15.15,0,0,0,.06.09C375.46,363.89,375.26,364,375.07,364.16Z" style="fill:#ebebeb"></path><path d="M375,364.39l4.12-2.84c-1.35,1-2.71,2-4.12,2.85a.22.22,0,0,0,.16.16c2.75-1.73,5.31-3.74,8.08-5.45,3.3-2,6.92-3.07,10.6-4.15,5.67-1.67,11.54-3.51,16-7.53.76-.69,4.32-3.8,3.62-5.08s-4.17.72-5,1.1A153.61,153.61,0,0,0,391,353.27c-5.25,3.27-10.48,6.66-15.41,10.4a.15.15,0,0,0,.06.09c-.2.13-.4.26-.59.4A.18.18,0,0,0,375,364.39Zm8.09-5.55c2.67-1.81,5.36-3.59,8.11-5.3,4.95-3.07,10-6.07,15.19-8.72a41.87,41.87,0,0,1,4.59-2c.21-.09,1.64-.53,1.91,0,.41.71-1.39,2.52-1.76,2.92a23.53,23.53,0,0,1-6.86,5.1c-5.32,2.71-11.24,3.66-16.76,5.81A26.7,26.7,0,0,0,383.07,358.84Z" style="fill:#fff"></path><path d="M397,258.39c-.6,4.61.33,9.42,1.58,13.86,2.92,10.26,8.55,19.79,10.33,30.37.07.42.13.84.19,1.25-.09.55,0,.41.15-.23h0c.77-2.81,3.45-15.21,2.22-24.12-.77-5.55-2.68-10.8-4.6-16-1.1-3-2.17-6-3.29-9-.36-1-.87-3.69-2.31-3.9C398.48,250.2,397.24,256.59,397,258.39Z" style="fill:#ebebeb"></path><path d="M400.76,262a23.43,23.43,0,0,0,.17,5.09,117.81,117.81,0,0,0,5.3,22.14,47.23,47.23,0,0,1,2.62,11.66c0,.58.06,1.16.06,1.73s.13.84.19,1.25c-.09.55,0,.41.15-.23h0c0-.16,0-.33,0-.5a64.67,64.67,0,0,0,.55-15.47c-.72-7.75-3.34-15.43-5.28-22.94l-.84-3.26a4.9,4.9,0,0,0-.61-1.82.93.93,0,0,0-1.24-.32C401,259.72,400.85,261.24,400.76,262Zm1.59-1.63c1,.27.85.64,1.07,1.51l.33,1.31c.22.87.45,1.74.67,2.61l1.35,5.23c1.8,7,3.84,14,3.87,21.28a84.6,84.6,0,0,1-.43,8.56,42.5,42.5,0,0,0-2.06-10A160.4,160.4,0,0,1,401.89,271c-.33-1.91-.63-3.81-.77-5.75a19.19,19.19,0,0,1-.06-2.4,7.2,7.2,0,0,1,.11-1.12C401.33,260.73,401.15,260.05,402.35,260.37Z" style="fill:#fff"></path><path d="M389.69,301.29a57.07,57.07,0,0,0-2.8,10.52c-1.2,7.2-.09,15.52-2,22.69-.17.47-.32.95-.45,1.43a5.36,5.36,0,0,0-.14.54c0,.1.13.15.17.06.15-.3.3-.61.46-.91v0c.08-.16.17-.32.24-.48,3.57-7,8.15-13.36,9.67-21.2.94-4.83,2.43-18.13-.75-19.14C392.69,294.33,390.47,299.22,389.69,301.29Z" style="fill:#ebebeb"></path><path d="M388.6,316.77c-.81,6.55-1.79,13-4.14,19.16a5.36,5.36,0,0,0-.14.54c0,.1.13.15.17.06.15-.3.3-.61.46-.91v0c.08-.16.17-.32.24-.48a97.07,97.07,0,0,0,6.2-16.66,49.73,49.73,0,0,0,1.8-9,30.48,30.48,0,0,0,.18-5c-.05-.62,0-2.11-.78-2.47C390,300.75,388.78,315.3,388.6,316.77Zm3.83-14.4c.86.36.56,4.52.53,5.25a35.74,35.74,0,0,1-.46,4.5,68.76,68.76,0,0,1-2,8.1c-1.23,4-2.75,8-4.37,11.86a74.07,74.07,0,0,0,2.18-10.39c.47-3.22.84-6.45,1.27-9.66.18-1.39.37-2.76.6-4.14C390.3,307.3,391.36,301.93,392.43,302.37Z" style="fill:#fff"></path><path d="M359.27,287.08c-1.76,2.16-.93,6.47,0,8.75a20.59,20.59,0,0,0,6.59,8c4,3.14,8.38,5.56,11.72,9.43s2.25,2.68,4.57,7.59c0,.1.14.1.21,0a.94.94,0,0,0,.15-.79s0-.09,0-.13c-2.14-8.08-6.28-14.44-11.78-20.75-3.12-3.57-5-8.1-8.24-11.54C361.28,286.34,360.48,285.59,359.27,287.08Z" style="fill:#ebebeb"></path><path d="M361.3,295.43c2.42,5.26,6.68,9.07,11.21,12.5a27.84,27.84,0,0,1,9.79,12.63c0,.09.05.17.08.27a.94.94,0,0,0,.15-.79c-.26-.7-.55-1.38-.86-2a40.74,40.74,0,0,0-6-10.82,62,62,0,0,0-5.54-5.92,50.14,50.14,0,0,1-5.68-7.22c-.61-.87-2.11-3.29-3.3-2.72S360.87,294.5,361.3,295.43Zm.31-3.69c.86-.17,2.16,1.89,2.56,2.47l1.38,2c.85,1.21,1.71,2.41,2.67,3.53,2.1,2.43,4.59,4.45,6.64,6.95a41.61,41.61,0,0,1,5.61,9.18,30.2,30.2,0,0,0-7.46-7.94,49.55,49.55,0,0,1-7.14-6.19,28.56,28.56,0,0,1-3.2-4.3,22.56,22.56,0,0,1-1.34-2.64C361.17,294.4,360.49,292,361.61,291.74Z" style="fill:#fff"></path><path d="M433.28,266.69c-7.14,8.06-13.79,16.54-20.11,25.26a.28.28,0,0,0,0,.34s0,0,0,.06l-.12.16a.13.13,0,0,0,0,.17l0,0h0a.13.13,0,0,0,.12,0c4.46-4.37,8.64-8.45,14.25-11.34,5.13-2.64,10.18-4.83,14.64-8.58,3.8-3.21,14.58-19.05,12.83-22.83C453.83,247.38,439,260.28,433.28,266.69Z" style="fill:#ebebeb"></path><path d="M413.17,292.29s0,0,0,.06l-.12.16a.13.13,0,0,0,0,.17l0,0h0c5.5-6.05,11.54-11.93,18.39-16.46,2.79-1.84,5.65-3.4,8.06-5.75a51.56,51.56,0,0,0,6.35-7.85c.52-.76,3.3-4.34,1.55-5.06s-4.48,2.82-5.41,3.72C432,271.13,421.79,281.07,413.17,292.29Zm13.06-14.59c4.68-4.95,9.53-9.73,14.4-14.49,1.23-1.21,2.44-2.46,3.71-3.63,1.54-1.4,2.77-2,3.2-1.51s-.23,1.79-.42,2.18a39.2,39.2,0,0,1-5.72,7.92c-4.35,5-10.43,7.73-15.47,11.94a116,116,0,0,0-12.15,11.83Q419.74,284.57,426.23,277.7Z" style="fill:#fff"></path><path d="M403.56,325.81a.15.15,0,0,0,0,.11.2.2,0,0,0,.24.13l.68-.22a.11.11,0,0,0,.06,0c5.11-.66,9.26.2,14.17,1.46a22.62,22.62,0,0,0,11.06,0,37.69,37.69,0,0,0,11.14-5c1.4-.9,5.89-2.91,5.16-5.37-1.2-4.05-14.82,1.22-17.18,2a105.57,105.57,0,0,1-12.75,3.42c-4.27.82-8.54,1.53-12.51,3.38A.14.14,0,0,0,403.56,325.81Z" style="fill:#ebebeb"></path><path d="M403.56,325.81a.15.15,0,0,0,0,.11c5.52-1.18,11-.13,16.54.12,4.83.22,9.83-1.29,14.14-3.34a24.57,24.57,0,0,0,3.65-2.14c.38-.27,1.1-.68,1.25-1.18.36-1.15-1-.88-1.65-.74-5.18,1.16-10.16,3.06-15.4,4-2.79.48-5.64.41-8.43.9-2.49.44-4.95,1.1-7.41,1.67h0A15.65,15.65,0,0,0,403.56,325.81Zm3.25-.71a64.79,64.79,0,0,1,9.35-1.6,53.18,53.18,0,0,0,7.76-.92c2.89-.61,5.71-1.46,8.54-2.27,1.34-.37,2.66-.75,4-1.08a9.41,9.41,0,0,1,1.14-.27c1.65-.21,1,.56.59.92a26,26,0,0,1-2.25,1.51,30.8,30.8,0,0,1-17.57,4.13C414.56,325.22,410.62,324.64,406.81,325.1Z" style="fill:#fff"></path><path d="M418.28,314.73a.39.39,0,0,0,0,.24.28.28,0,0,0,0,.12.27.27,0,0,0,.09.12l0,0a.37.37,0,0,0,.37,0,16.46,16.46,0,0,0,2.17-1c8.46-3.23,17.13-6.64,24-12.62a55.4,55.4,0,0,0,9.2-10.43c1.3-1.88,4.87-5.81,3.69-8.45s-3.49-.93-5.08.14A119.83,119.83,0,0,0,441,291.89a66.13,66.13,0,0,0-9.91,10.77c-3.46,4.73-6.78,9.63-12.49,11.77A.42.42,0,0,0,418.28,314.73Z" style="fill:#ebebeb"></path><path d="M418.28,314.73a.39.39,0,0,0,0,.24,41.43,41.43,0,0,0,13.85-9.76,168.5,168.5,0,0,1,13-12.46l3.69-3.07c.26-.23,2.47-2,3-1.46s-1,2.72-1.23,3c-1.71,2-3.6,3.83-5.46,5.67-7.75,7.59-16.64,14.25-26.88,18.05a.28.28,0,0,0,0,.12,61.16,61.16,0,0,0,17.34-9.39,108.42,108.42,0,0,0,13.24-12c1.08-1.14,3.91-3.39,3.54-5.3-.32-1.63-2.36-.18-3.06.38a142.67,142.67,0,0,0-15.47,14C429.28,307.7,424.49,312,418.28,314.73Z" style="fill:#fff"></path><path d="M433.84,226.72a40.93,40.93,0,0,0-6.68,12.68c-2.07,7.14-2,14.62-3,21.93,0,0,0,.06,0,.09a52.11,52.11,0,0,1-1.16,5.9c-.11.41-.23.83-.35,1.24a.28.28,0,0,0,0,.26.34.34,0,0,0,.17.08.25.25,0,0,0,.17,0h0a.33.33,0,0,0,.2-.2c.2-.58.39-1.17.56-1.77a.13.13,0,0,0,.09-.07c4.37-9.13,9.33-18.36,14.29-27.38A73.39,73.39,0,0,0,443.84,227c.84-2.57,1.86-6.54,0-8.92a.58.58,0,0,0-.5-.26C439.19,218.5,436.1,223.63,433.84,226.72Z" style="fill:#ebebeb"></path><path d="M433.09,233.79c-5,8.69-7,18.07-8.9,27.54,0,0,0,.06,0,.09-.39,2-.77,3.93-1.16,5.9-.11.5-.21,1-.31,1.5a.34.34,0,0,0,.17.08.25.25,0,0,0,.17,0h0v0c2.07-6.65,6-13,8.79-19.31q2.24-5,4.31-10.15a84.16,84.16,0,0,0,3.48-9.22c.32-1.18.73-3.52-1.25-2.88C436,228.08,434.25,231.77,433.09,233.79Zm1.76-2.26a16.58,16.58,0,0,1,1.66-2.32c.74-.81,3-2.66,3,.07,0,1.4-1.06,3.41-1.56,4.69-.56,1.46-1.13,2.9-1.72,4.35q-3.62,9-7.71,17.79c-1.74,3.73-3.75,7.4-5.13,11.26,1-4.8,1.73-9.66,2.82-14.45a68.53,68.53,0,0,1,6.28-17.34Q433.59,233.51,434.85,231.53Z" style="fill:#fff"></path><path d="M373.47,276a199,199,0,0,0,5.4,26.36c2.22,7.95,4.53,15.89,5.61,24.09,1.43,10.88.45,22.81-5.1,32.28a128.62,128.62,0,0,0,21.86-36.54c8.94-22.45,17-45.53,27.9-67.17.18-.36.67-.07.54.28-4.45,11.81-9.68,23.33-14.23,35.11s-8.72,23.54-13.45,35.15q-.76,1.88-1.59,3.72c6.93-8.59,17.09-14.91,27.07-18.58.13-.05.18.14.06.19a70.31,70.31,0,0,0-19.23,12.79c-5,4.58-8.75,9.88-12.75,15.24a108,108,0,0,1-37.73,39.39.16.16,0,0,1-.17-.26,108.28,108.28,0,0,0,17.46-14.65c8.92-11.81,9.34-27.58,6.68-41.9-1.4-7.52-3.39-14.89-5.16-22.32s-3.78-15.37-3.59-23.16A.21.21,0,0,1,373.47,276Z" style="fill:#ebebeb"></path><path d="M51.58,348.85C62,360.18,79.85,363.51,79.85,363.51S93.18,351.14,95.9,336c2.26-12.61-4.65-23.54-14-23.64C68.44,312.22,69,326.07,69,326.07s-6.92-12-18.21-4.7C42.94,326.47,42.93,339.4,51.58,348.85Z" style="fill:#ebebeb"></path><path d="M423.87,124.9c1.82,9.23,10.09,16.68,10.09,16.68s10.91-2.21,17.16-9.24c5.21-5.86,5.08-13.78.22-16.82-7-4.38-11.09,3-11.09,3s.22-8.49-8-8.27C426.5,110.45,422.37,117.2,423.87,124.9Z" style="fill:#ebebeb"></path><path d="M394,94.93c3.62,4.34,10.14,5.88,10.14,5.88s5.12-4.32,6.38-9.84c1.05-4.6-1.31-8.74-4.75-8.94-4.94-.29-5,4.82-5,4.82s-2.34-4.54-6.62-2C391.2,86.55,391,91.3,394,94.93Z" style="fill:#ebebeb"></path><path d="M440.76,446.74c-.78-.32-1.12.94-.35,1.26a4.24,4.24,0,0,1,2.47,5.13.65.65,0,0,0,1.26.34A5.57,5.57,0,0,0,440.76,446.74Z" style="fill:#ebebeb"></path><path d="M446.48,445.52a10,10,0,0,0-.76,5.78c.13.82,1.39.47,1.26-.35a8.39,8.39,0,0,1,.63-4.77C447.94,445.42,446.82,444.75,446.48,445.52Z" style="fill:#ebebeb"></path><path d="M429.6,432.67c-.74-.39-1.4.74-.66,1.13a4,4,0,0,1,2.16,4c-.06.83,1.24.83,1.31,0A5.29,5.29,0,0,0,429.6,432.67Z" style="fill:#ebebeb"></path><path d="M159.67,406.63c-.75-.4-1.41.73-.66,1.12a4,4,0,0,1,2.16,4c-.07.84,1.24.83,1.3,0A5.29,5.29,0,0,0,159.67,406.63Z" style="fill:#ebebeb"></path><path d="M117.9,417.22c-.75-.39-1.41.74-.66,1.13a4,4,0,0,1,2.16,3.95c-.07.84,1.24.84,1.31,0A5.32,5.32,0,0,0,117.9,417.22Z" style="fill:#ebebeb"></path><path d="M121.79,415.18c-.4-.74-1.53-.08-1.13.66a10.33,10.33,0,0,1,1.23,5.58c0,.85,1.27.84,1.31,0A11.79,11.79,0,0,0,121.79,415.18Z" style="fill:#ebebeb"></path><path d="M124.82,416.05a6.81,6.81,0,0,0-.83,4.17c.1.82,1.41.83,1.3,0a5.63,5.63,0,0,1,.66-3.51C126.35,416,125.22,415.31,124.82,416.05Z" style="fill:#ebebeb"></path><path d="M148.51,449.07a.65.65,0,0,0-.66,1.13,5.29,5.29,0,0,1,2.63,4.92c0,.84,1.26.84,1.31,0A6.6,6.6,0,0,0,148.51,449.07Z" style="fill:#ebebeb"></path><path d="M153.3,452.2l-.45,2.62c-.14.83,1.12,1.18,1.26.35l.45-2.63C154.7,451.72,153.44,451.37,153.3,452.2Z" style="fill:#ebebeb"></path><path d="M42.34,420.2c-.64-.54-1.57.38-.92.92a6.1,6.1,0,0,1,2.26,5.12c0,.84,1.26.83,1.3,0A7.26,7.26,0,0,0,42.34,420.2Z" style="fill:#ebebeb"></path><path d="M390.9,412.6c.65-.53,1.58.39.93.93a6.05,6.05,0,0,0-2.26,5.11c0,.85-1.27.84-1.31,0A7.32,7.32,0,0,1,390.9,412.6Z" style="fill:#ebebeb"></path><path d="M450.32,385.5c.64-.53,1.57.39.92.92a6.12,6.12,0,0,0-2.26,5.12c0,.84-1.26.84-1.3,0A7.3,7.3,0,0,1,450.32,385.5Z" style="fill:#ebebeb"></path><path d="M365.85,452.28a7.76,7.76,0,0,0-2.08,6.91c.15.82,1.41.47,1.26-.35a6.36,6.36,0,0,1,1.74-5.64C367.36,452.6,366.44,451.67,365.85,452.28Z" style="fill:#ebebeb"></path><path d="M361.09,453v4.39a.65.65,0,0,0,1.3,0V453A.65.65,0,0,0,361.09,453Z" style="fill:#ebebeb"></path><path d="M368.08,454.37a4,4,0,0,0-1.85,3.56c0,.83,1.35.84,1.31,0a2.7,2.7,0,0,1,1.2-2.43C369.44,455,368.78,453.91,368.08,454.37Z" style="fill:#ebebeb"></path><path d="M56.3,385.16a7.77,7.77,0,0,0-2.08,6.91c.15.83,1.41.48,1.26-.34a6.35,6.35,0,0,1,1.74-5.64C57.81,385.48,56.89,384.56,56.3,385.16Z" style="fill:#ebebeb"></path><path d="M51.54,385.88v4.38a.65.65,0,0,0,1.3,0v-4.38A.65.65,0,0,0,51.54,385.88Z" style="fill:#ebebeb"></path><path d="M58.53,387.26a4,4,0,0,0-1.85,3.55c0,.84,1.35.84,1.31,0a2.68,2.68,0,0,1,1.2-2.42C59.89,387.92,59.23,386.79,58.53,387.26Z" style="fill:#ebebeb"></path></g><g id="freepik--Shadow--inject-44"><ellipse cx="250" cy="419.27" rx="120.41" ry="18.83" style="fill:#ebebeb"></ellipse></g><g id="freepik--Hearts--inject-44"><path d="M65.66,179.71c20.82,11.92,49,8.41,49,8.41s14-24.71,10.85-48.48c-2.61-19.84-18.06-32.81-32.06-28.53-20.06,6.13-12.64,26.47-12.64,26.47s-16-14.6-29.31,1.63C42.2,150.52,48.31,169.75,65.66,179.71Z" style="fill:#0A988F"></path><path d="M135.76,66.53c4,14,17.78,24.43,17.78,24.43s16.55-4.84,25.27-16.53c7.28-9.74,6-22-1.87-26-11.34-5.84-16.73,6.17-16.73,6.17s-.77-13.14-13.46-11.71C137.91,43.87,132.42,54.84,135.76,66.53Z" style="fill:#0A988F"></path><path d="M410,244.11c.82,14.56,12,27.74,12,27.74s17.22-1.07,28.3-10.55c9.24-7.9,10.73-20.07,3.91-25.79-9.78-8.19-17.68,2.34-17.68,2.34s2.14-13-10.55-14.39C417.05,222.48,409.28,232,410,244.11Z" style="fill:#0A988F"></path><path d="M411.56,188.72c5.18,5.44,13.95,6.92,13.95,6.92s6.41-6.17,7.6-13.59c1-6.19-2.48-11.47-7.06-11.44-6.58,0-6.17,6.82-6.17,6.82s-3.49-5.82-8.95-2.14C407.13,177.85,407.24,184.17,411.56,188.72Z" style="fill:#0A988F"></path></g><g id="freepik--Floor--inject-44"><path d="M38.64,378.29c135.41-.61,287.31-.62,422.72,0-135.41.62-287.31.61-422.72,0Z" style="fill:#263238"></path></g><g id="freepik--Chicken--inject-44"><path d="M211.71,398s-44,8.61-42.7,16.43,36.68-7.34,36.68-7.34-31.25,21.06-24.55,26.64S218.9,408,218.9,408s23,2.17,23.48-4.37S223.73,398,223.73,398V363.07h-12Z" style="fill:#0A988F"></path><path d="M306,396s44,8.62,42.69,16.43-36.67-7.33-36.67-7.33,31.25,21.05,24.55,26.64-37.76-25.7-37.76-25.7-23,2.17-23.48-4.37S294,396,294,396V361.08h12Z" style="fill:#0A988F"></path><path d="M119.66,285.41s-27.76-36.13,2.69-90,66.75-91.35,138.19-96,150.4,73,158.09,123c4.69,30.45-5.85,48-5.85,48s39.81,139.36-160.44,139.36c-129.4,0-173.32-87.83-172.15-110.08S119.66,285.41,119.66,285.41Z" style="fill:#0A988F"></path><path d="M244.39,108.28a94.09,94.09,0,0,1,24.11-25.9c12.37-8.9,34.54-7.8,34.54-7.8l-39.91,26.48s15.3-10.15,29.42-11.12c8.69-.59,13.31,1.48,13.31,1.48l-40.78,16.29Z" style="fill:#0A988F"></path><g style="opacity:0.4"><path d="M119.66,285.41s-27.76-36.13,2.69-90,66.75-91.35,138.19-96,150.4,73,158.09,123c4.69,30.45-5.85,48-5.85,48s39.81,139.36-160.44,139.36c-129.4,0-173.32-87.83-172.15-110.08S119.66,285.41,119.66,285.41Z" style="fill:#fff"></path><path d="M244.39,108.28a94.09,94.09,0,0,1,24.11-25.9c12.37-8.9,34.54-7.8,34.54-7.8l-39.91,26.48s15.3-10.15,29.42-11.12c8.69-.59,13.31,1.48,13.31,1.48l-40.78,16.29Z" style="fill:#fff"></path></g><g style="opacity:0.4"><path d="M412.77,270.35s39.82,139.36-160.43,139.36c-129.4,0-173.31-87.83-172.15-110.08a14.9,14.9,0,0,1,1-4.83c7,28.72,51.54,95.77,161.32,95.77,160.55,0,138.16-112,138.16-112s22-22.18,20.05-45.78c-4.09-49-61.74-117.23-119.06-131.68l1.47-.59h0c64.59,10.16,128.61,77.09,135.49,121.84C423.32,252.79,412.77,270.35,412.77,270.35Z" style="fill:#0A988F"></path></g><g style="opacity:0.2"><path d="M210.16,118.65c-16.61-2.16-39.89,24.38-30.06,35.81,8.05,9.35,23.39,7.18,31.59,2.94s16.41-14.08,14.2-23.52C224,125.9,216.25,119.44,210.16,118.65Z" style="fill:#fff"></path></g><path d="M256,287.59a97.81,97.81,0,0,0,28,.46c.64-.09-5.85,6.57-6.42,7.09a67.22,67.22,0,0,0,31.66-13.6c.12-.09.29.13.19.25-12.75,15.75-35.17,16.91-36.92,16.53-1.14-.26-1-1.93-.21-2.42.47-.29,5.78-4.79,6.55-5.47a51.48,51.48,0,0,1-22.94-2.19C255.54,288.12,255.65,287.52,256,287.59Z" style="fill:#0A988F"></path><path d="M184.23,306a287.31,287.31,0,0,1,22.13,20.88c3.55,3.66,6.92,7.4,10.2,11.51.4.52.82,1,1.21,1.65l.59.89a8.67,8.67,0,0,1,.66,1.47,6.94,6.94,0,0,1-1.17,5.87,18.73,18.73,0,0,1-6.9,5.56c-10,4.76-21.19,4.87-31.35,2.37A57.76,57.76,0,0,1,153,341,76.52,76.52,0,0,0,180.5,352a54.89,54.89,0,0,0,14.41.52,37.67,37.67,0,0,0,13.53-3.61,13.74,13.74,0,0,0,4.93-3.67c.47-.69.55-1.18.48-1.27s.05,0-.12-.25l-.45-.7c-.27-.45-.61-1-1-1.44-2.79-4-6.09-7.83-9.21-11.76C196.74,322,190.33,314.15,184.23,306Z" style="fill:#0A988F"></path><path d="M358.77,296.2c-6,7.45-12.39,14.57-18.7,21.66-3.09,3.58-6.37,7.08-9.15,10.7-.36.44-.7.9-1,1.31l-.44.63c-.17.24,0,.14-.11.2s0,.43.39,1.08a12.87,12.87,0,0,0,4.43,3.61,35.34,35.34,0,0,0,12.53,4,51.76,51.76,0,0,0,13.57.15,72.86,72.86,0,0,0,26.39-9A54.06,54.06,0,0,1,361,343.82c-9.7,1.95-20.23,1.37-29.53-3.57a17.66,17.66,0,0,1-6.32-5.58,6.68,6.68,0,0,1-.86-5.72,8,8,0,0,1,.7-1.38l.6-.82a14.84,14.84,0,0,1,1.22-1.51A144.51,144.51,0,0,1,337,314.85,260.44,260.44,0,0,1,358.77,296.2Z" style="fill:#0A988F"></path><path d="M119.66,285.41c5.47,3.61,12.17,8,17.51,11.74a69,69,0,0,1,5.7,4.36,36.74,36.74,0,0,1-13.23-5.69c-4-2.75-7.74-6-10-10.41Z" style="fill:#0A988F"></path><path d="M412.78,270.35a27.55,27.55,0,0,1-16.15,15.12,66.94,66.94,0,0,1,16.15-15.12Z" style="fill:#0A988F"></path><path d="M275.12,230.27s12.34-5.52,17-5.67,14.46,3.62,14.46,3.62-8.46,5.9-14,6.08C287.3,234.47,275.12,230.27,275.12,230.27Z" style="fill:#0A988F"></path><path d="M275.12,230.27s12.34-5.52,17-5.67,14.46,3.62,14.46,3.62-8.46,5.9-14,6.08C287.3,234.47,275.12,230.27,275.12,230.27Z" style="opacity:0.1"></path><path d="M184,182.26s6.55-13.92,22.93-7.92" style="fill:#0A988F"></path><path d="M366.8,179s-6.55-13.92-22.93-7.92" style="fill:#0A988F"></path><ellipse cx="171.56" cy="260.62" rx="16.99" ry="8.17" style="fill:#ff98b9"></ellipse><ellipse cx="383.68" cy="247.74" rx="12.95" ry="8.17" style="fill:#ff98b9"></ellipse><path d="M347.24,190.94c16.52-2.89,27.72,12.15,31.1,31.42,2.73,15.6-4.28,33.26-20.14,36s-28.94-14.24-31.51-28.89S329.3,194.08,347.24,190.94Z" style="fill:#263238"></path><path d="M346.36,195.26c15.53-2.72,26.06,11.42,29.23,29.53,2.57,14.67-4,31.27-18.93,33.88s-27.2-13.38-29.62-27.16S329.5,198.21,346.36,195.26Z" style="fill:#fff"></path><path d="M342.86,199.44c12.16-2.13,20.4,8.94,22.89,23.12,2,11.48-3.15,24.47-14.82,26.52s-21.3-10.48-23.19-21.26S329.66,201.75,342.86,199.44Z" style="fill:#263238"></path><path d="M331.46,211.47c-4.23,5-1.62,19.46,3.82,19,4.45-.38,7.14-6.07,7.7-9.88s-.5-9-3.71-10.61A6.87,6.87,0,0,0,331.46,211.47Z" style="fill:#fff"></path><path d="M341.81,202.13c-1.51,1.32-.48,5.33,1.38,6.08s3.82-1.85,3.51-3.54S343.18,200.93,341.81,202.13Z" style="fill:#fff"></path><path d="M212,199.32c-21.67-2.56-34.53,12.79-36.82,32.22-1.86,15.73,9.1,33.32,29.9,35.78S241,252.41,242.7,237.63,235.52,202.1,212,199.32Z" style="fill:#263238"></path><path d="M213.6,203.64c-20.37-2.4-32.46,12-34.62,30.28-1.74,14.79,8.56,31.33,28.11,33.63s33.74-14,35.38-27.9S235.72,206.25,213.6,203.64Z" style="fill:#fff"></path><path d="M212.42,207.31c-16.63-2-26.5,9.81-28.27,24.72-1.42,12.07,7,25.57,22.95,27.45S234.64,248,236,236.7,230.47,209.44,212.42,207.31Z" style="fill:#263238"></path><path d="M191.91,220.26c-5.34,5.51-2,21.35,4.93,20.87,5.65-.4,9-6.63,9.74-10.81s-.68-9.89-4.75-11.67C198.38,217.15,193.87,218.24,191.91,220.26Z" style="fill:#fff"></path><path d="M205,210.05c-1.93,1.44-.59,5.85,1.77,6.68s4.84-2,4.44-3.87S206.75,208.74,205,210.05Z" style="fill:#fff"></path></g></svg>
